<svg width="54" height="50" viewBox="0 0 54 50" fill="none" xmlns="http://www.w3.org/2000/svg">
<g clip-path="url(#clip0_1_796)">
<path d="M52.7451 0L29.5771 16.9331L33.8854 6.95396L52.7451 0Z" fill="#E17726"/>
<path d="M1.30911 0.0200195L20.1184 6.95523L24.2092 17.0652L1.30911 0.0200195ZM43.4215 36.0121L53.6615 36.2046L50.0827 48.2134L37.5877 44.8152L43.4215 36.0121ZM10.5782 36.0121L16.3903 44.8152L3.91639 48.2136L0.359375 36.2046L10.5782 36.0121Z" fill="#E27625"/>
<path d="M23.6529 14.49L24.0713 27.8406L11.5493 27.2779L15.1112 21.97L15.1563 21.919L23.6529 14.49ZM30.2171 14.3411L38.8433 21.9194L38.888 21.9702L42.4499 27.2781L29.9306 27.8406L30.2171 14.3411ZM16.7569 36.0509L23.5942 41.3131L15.6517 45.1009L16.7569 36.0509ZM37.244 36.05L38.3262 45.1011L30.4058 41.3127L37.244 36.05Z" fill="#E27625"/>
<path d="M30.5807 40.8171L38.6179 44.6613L31.1417 48.1709L31.2193 45.8513L30.5807 40.8171ZM23.4167 40.8188L22.8031 45.8134L22.8535 48.1682L15.3599 44.6613L23.4167 40.8188Z" fill="#D5BFB2"/>
<path d="M21.0962 29.583L23.1964 33.943L16.0459 31.8738L21.0962 29.583ZM32.904 29.5834L37.9781 31.8738L30.8042 33.9424L32.904 29.5834Z" fill="#233447"/>
<path d="M17.3035 36.0063L16.1477 45.3896L9.95264 36.2115L17.3035 36.0063ZM36.6968 36.0065L44.0479 36.2115L37.8296 45.39L36.6968 36.0065ZM42.631 26.7473L37.2812 32.1329L33.1564 30.2711L31.1817 34.3719L29.8871 27.32L42.631 26.7473ZM11.3662 26.7473L24.1126 27.32L22.8178 34.3719L20.8426 30.2717L16.7398 32.1331L11.3662 26.7473Z" fill="#CC6228"/>
<path d="M11.0059 25.6422L17.0586 31.7091L17.2682 37.6984L11.0059 25.6422ZM43.0004 25.6313L36.7267 37.7091L36.9629 31.7091L43.0004 25.6313ZM23.8168 26.0118L24.0604 27.5263L24.6624 31.2995L24.2753 42.888L22.4457 33.5786L22.445 33.4824L23.8168 26.0118ZM30.1802 25.9907L31.5556 33.4824L31.5549 33.5786L29.7206 42.9113L29.6481 40.577L29.3619 31.2307L30.1802 25.9907Z" fill="#E27525"/>
<path d="M37.501 31.468L37.2962 36.6718L30.9111 41.5857L29.6203 40.6849L31.0672 33.3234L37.501 31.468ZM16.5215 31.468L22.933 33.3234L24.3798 40.6849L23.089 41.5857L16.7037 36.6714L16.5215 31.468Z" fill="#F5841F"/>
<path d="M14.1382 43.5122L22.3072 47.3355L22.2726 45.7028L22.9562 45.1101H31.0412L31.7495 45.7007L31.6972 47.3322L39.8145 43.5218L35.8646 46.746L31.0885 49.9862H22.8906L18.1177 46.7326L14.1382 43.5122Z" fill="#C0AC9D"/>
<path d="M29.9957 40.3081L31.1506 41.1141L31.8274 46.4483L30.848 45.6314H23.1548L22.1938 46.4648L22.8485 41.1146L24.0039 40.3081H29.9957Z" fill="#161616"/>
<path d="M51.2156 0.46875L53.9967 8.70979L52.2598 17.0425L53.4966 17.9848L51.823 19.246L53.0809 20.2056L51.4153 21.7038L52.4378 22.4352L49.7242 25.5656L38.5945 22.3646L38.4981 22.3135L30.4778 15.6306L51.2156 0.46875ZM2.78449 0.46875L23.5225 15.6306L15.502 22.3135L15.4056 22.3646L4.27584 25.5656L1.56226 22.4352L2.58392 21.7044L0.919405 20.2056L2.17475 19.2471L0.47607 17.9823L1.75946 17.0394L0.00341797 8.71021L2.78449 0.46875Z" fill="#763E1A"/>
<path d="M38.0499 21.6647L49.8425 25.0561L53.6737 36.7199H43.566L36.6017 36.8066L41.6666 27.0549L38.0499 21.6647ZM15.9497 21.6647L12.3324 27.0549L17.3979 36.8066L10.4367 36.7199H0.347168L4.15686 25.0564L15.9497 21.6647ZM34.4627 6.89844L31.1642 15.6982L30.4642 27.5857L30.1964 31.3118L30.1751 40.8301H23.8243L23.8037 31.3297L23.535 27.5826L22.8347 15.6982L19.5367 6.89844H34.4627Z" fill="#F5841F"/>
</g>
<defs>
<clipPath id="clip0_1_796">
<rect width="54" height="50" fill="white"/>
</clipPath>
</defs>
</svg>
