<svg width="353" height="17" viewBox="0 0 353 17" fill="none" xmlns="http://www.w3.org/2000/svg">
<path d="M2.28766 14V3.04L0.207656 3.4V1.58L4.44766 0.919999V14H2.28766ZM11.6744 14V3.04L9.59438 3.4V1.58L13.8344 0.919999V14H11.6744Z" fill="#7DD1C1"/>
<path d="M21.0611 14V3.04L18.9811 3.4V1.58L23.2211 0.919999V14H21.0611ZM38.0572 14V3.04L35.9772 3.4V1.58L40.2172 0.919999V14H38.0572ZM47.4439 14V3.04L45.3639 3.4V1.58L49.6039 0.919999V14H47.4439ZM56.8306 14V3.04L54.7506 3.4V1.58L58.9906 0.919999V14H56.8306ZM73.8267 14V3.04L71.7467 3.4V1.58L75.9867 0.919999V14H73.8267ZM83.2134 14V3.04L81.1334 3.4V1.58L85.3734 0.919999V14H83.2134ZM92.6002 14V3.04L90.5202 3.4V1.58L94.7602 0.919999V14H92.6002ZM109.596 14V3.04L107.516 3.4V1.58L111.756 0.919999V14H109.596ZM118.983 14V3.04L116.903 3.4V1.58L121.143 0.919999V14H118.983ZM128.37 14V3.04L126.29 3.4V1.58L130.53 0.919999V14H128.37ZM145.366 14V3.04L143.286 3.4V1.58L147.526 0.919999V14H145.366ZM154.752 14V3.04L152.673 3.4V1.58L156.913 0.919999V14H154.752ZM164.139 14V3.04L162.059 3.4V1.58L166.299 0.919999V14H164.139ZM171.446 16.4L172.046 12.62H173.946L173.026 16.4H171.446ZM188.354 14V3.04L186.274 3.4V1.58L190.514 0.919999V14H188.354ZM197.741 14V3.04L195.661 3.4V1.58L199.901 0.919999V14H197.741ZM207.127 14V3.04L205.048 3.4V1.58L209.288 0.919999V14H207.127ZM224.124 14V3.04L222.044 3.4V1.58L226.284 0.919999V14H224.124ZM233.51 14V3.04L231.43 3.4V1.58L235.67 0.919999V14H233.51ZM242.897 14V3.04L240.817 3.4V1.58L245.057 0.919999V14H242.897ZM259.893 14V3.04L257.813 3.4V1.58L262.053 0.919999V14H259.893ZM269.28 14V3.04L267.2 3.4V1.58L271.44 0.919999V14H269.28ZM278.667 14V3.04L276.587 3.4V1.58L280.827 0.919999V14H278.667ZM295.663 14V3.04L293.583 3.4V1.58L297.823 0.919999V14H295.663ZM305.049 14V3.04L302.969 3.4V1.58L307.209 0.919999V14H305.049ZM314.436 14V3.04L312.356 3.4V1.58L316.596 0.919999V14H314.436ZM331.432 14V3.04L329.352 3.4V1.58L333.592 0.919999V14H331.432ZM340.819 14V3.04L338.739 3.4V1.58L342.979 0.919999V14H340.819ZM350.206 14V3.04L348.126 3.4V1.58L352.366 0.919999V14H350.206Z" fill="white"/>
</svg>
